#!OML:ASF F:\VICON\USERDATA\INSTALL\rory3\rory3.ASF
:FULLY-SPECIFIED
:DEGREES
281
root 3.82574 17.5248 31.7184 -0.701083 -5.48075 -7.955
lowerback 9.43881 2.72568 7.39838
upperback 0.129132 4.52892 1.96781
thorax -4.75022 2.08499 -2.67535
lowerneck -18.06 -3.29364 -1.42023
upperneck 17.3943 -4.27366 0.651554
head 8.43396 -2.04256 -0.0793776
rclavicle -2.82647e-015 -1.75924e-014
rhumerus -20.1763 -7.84464 -83.1247
rradius 32.2325
rwrist -1.23124
rhand -18.5775 24.004
rfingers 7.12502
rthumb 7.71293 -5.83532
lclavicle -2.82647e-015 -1.75924e-014
lhumerus -40.7288 4.30178 83.2926
lradius 25.2259
lwrist 4.3469
lhand -25.1408 24.3966
lfingers 7.12502
lthumb 1.37563 54.3719
rfemur 10.6315 7.44973 34.6849
rtibia 26.0632
rfoot -22.1193 -5.75133
rtoes -4.99784
lfemur -25.8504 -5.53246 -7.97441
ltibia 12.3886
lfoot -5.52003 6.46486
ltoes -13.2641
282
root 3.84464 17.5064 31.9355 -0.829233 -5.38488 -7.91146
lowerback 9.14365 2.71297 7.4877
upperback 0.316989 4.4784 1.92481
thorax -4.38091 2.07683 -2.73841
lowerneck -17.9117 -3.29744 -1.2988
upperneck 17.1922 -4.29977 0.599346
head 8.33565 -2.05433 -0.115146
rclavicle -3.52222e-015 -1.88845e-015
rhumerus -19.9794 -8.42682 -83.1009
rradius 32.2231
rwrist -1.03043
rhand -18.5627 24.1574
rfingers 7.12502
rthumb 7.72723 -5.68138
lclavicle -3.52222e-015 -1.88845e-015
lhumerus -40.5918 4.36602 83.2691
lradius 24.6644
lwrist 4.10272
lhand -24.7155 25.1141
lfingers 7.12502
lthumb 1.78637 55.0863
rfemur 11.0926 7.25383 34.536
rtibia 26.8243
rfoot -21.9452 -5.15476
rtoes -5.69465
lfemur -25.7046 -4.83794 -8.56648
ltibia 13.2573
lfoot -5.45941 5.11404
ltoes -11.613
283
root 3.86026 17.4914 32.1542 -1.01978 -5.33989 -7.62142
lowerback 9.12604 2.69622 7.15102
upperback 0.376469 4.41385 1.87504
thorax -4.33522 2.05475 -2.59434
lowerneck -17.9557 -3.27223 -1.23758
upperneck 17.3298 -4.27388 0.553761
head 8.38712 -2.04182 -0.139315
rclavicle -2.99047e-014 -4.05024e-014
rhumerus -19.9766 -8.74449 -83.0676
rradius 32.2032
rwrist -0.786314
rhand -18.5038 24.1
rfingers 7.12502
rthumb 7.78409 -5.73671
lclavicle -2.99047e-014 -4.05024e-014
lhumerus -40.7149 4.61688 83.1569
lradius 24.2942
lwrist 3.74298
lhand -26.1657 20.8274
lfingers 7.12502
lthumb 0.385705 50.8068
rfemur 11.6734 7.21874 34.1936
rtibia 27.4547
rfoot -21.3091 -4.61345
rtoes -5.97741
lfemur -25.896 -4.19217 -9.38977
ltibia 14.9145
lfoot -5.64789 3.81249
ltoes -11.3472
284
root 3.88016 17.4745 32.3766 -1.18403 -5.27011 -7.45223
lowerback 9.2411 2.67294 7.00372
upperback 0.364889 4.37829 1.85791
thorax -4.42457 2.03643 -2.53444
lowerneck -18.0715 -3.31876 -1.37676
upperneck 17.4968 -4.32271 0.656234
head 8.47029 -2.06161 -0.0922614
rclavicle -4.90501e-014 -9.29318e-015
rhumerus -20.0517 -9.1817 -82.9477
rradius 32.1919
rwrist -0.301484
rhand -18.5023 24.169
rfingers 7.12502
rthumb 7.78555 -5.66767
lclavicle -4.90501e-014 -9.29318e-015
lhumerus -41.0915 4.87901 83.0715
lradius 24.1527
lwrist 3.33964
lhand -25.3741 17.0283
lfingers 7.12502
lthumb 1.15025 47.0049
rfemur 12.2095 7.15103 33.9561
rtibia 28.1352
rfoot -20.6633 -4.12486
rtoes -6.43385
lfemur -26.1737 -3.73155 -10.0048
ltibia 16.6279
lfoot -4.01897 2.07889
ltoes -14.327
285
root 3.90175 17.4964 32.5968 -1.29687 -5.14764 -7.27125
lowerback 9.26026 2.6543 6.87171
upperback 0.40427 4.33929 1.86059
thorax -4.40712 2.02143 -2.45423
lowerneck -17.9863 -3.41741 -1.62111
upperneck 17.3701 -4.44235 0.899876
head 8.42562 -2.10971 0.0167762
rclavicle -4.76928e-015 -4.27387e-015
rhumerus -20.0606 -9.55949 -82.7601
rradius 32.1851
rwrist 0.040105
rhand -18.3846 24.1653
rfingers 7.12502
rthumb 7.89914 -5.66714
lclavicle -4.76928e-015 -4.27387e-015
lhumerus -41.2108 4.90645 83.2386
lradius 23.8804
lwrist 3.14924
lhand -26.8421 18.9076
lfingers 7.12502
lthumb -0.267566 48.8872
rfemur 12.5719 6.96142 33.6151
rtibia 28.8849
rfoot -19.866 -3.53784
rtoes -7.02628
lfemur -26.2915 -3.15439 -10.6656
ltibia 18.1866
lfoot -3.51456 -0.419832
ltoes -8.50335
286
root 3.9206 17.5136 32.8263 -1.57676 -5.07917 -6.71561
lowerback 9.21118 2.70271 6.36749
upperback 0.557996 4.33103 1.70623
thorax -4.24276 2.03527 -2.32697
lowerneck -17.8922 -3.49348 -1.50515
upperneck 17.1425 -4.56681 0.857813
head 8.3297 -2.1672 -0.0276191
rclavicle -3.2582e-014 -2.32081e-014
rhumerus -20.0977 -10.1504 -82.6718
rradius 32.2385
rwrist 0.324368
rhand -18.3057 23.8968
rfingers 7.12502
rthumb 7.97533 -5.93276
lclavicle -3.2582e-014 -2.32081e-014
lhumerus -41.0529 4.96284 83.2745
lradius 23.2462
lwrist 3.21983
lhand -27.2065 18.4579
lfingers 7.12502
lthumb -0.619538 48.4367
rfemur 12.9948 6.69342 32.8161
rtibia 29.8232
rfoot -18.9609 -2.72895
rtoes -6.57209
lfemur -26.2367 -3.15593 -11.4493
ltibia 19.6414
lfoot -2.14293 -2.32216
ltoes -5.89663
287
root 3.93716 17.5215 33.0656 -2.00805 -4.94232 -6.05289
lowerback 9.29066 2.71007 5.74819
upperback 0.589244 4.27322 1.52201
thorax -4.28908 2.01643 -2.17293
lowerneck -17.4759 -3.50694 -1.35594
upperneck 17.1361 -4.60778 0.743175
head 8.24809 -2.19167 -0.0874725
rclavicle -6.22134e-015 2.2413e-014
rhumerus -20.5642 -10.6389 -82.5885
rradius 32.3078
rwrist 0.478605
rhand -18.3393 23.6986
rfingers 7.12502
rthumb 7.94289 -6.13214
lclavicle -6.22134e-015 2.2413e-014
lhumerus -41.2538 5.24553 83.0377
lradius 22.704
lwrist 3.13256
lhand -26.4238 15.9661
lfingers 7.12502
lthumb 0.136465 45.9458
rfemur 13.495 6.44119 32.0063
rtibia 30.9987
rfoot -17.8511 -2.2819
rtoes -7.6408
lfemur -26.0053 -3.39899 -12.3217
ltibia 21.0322
lfoot -1.62367 -3.39951
ltoes -5.22459
288
root 3.95331 17.5237 33.2864 -2.30241 -4.84189 -5.71516
lowerback 9.5167 2.71088 5.43283
upperback 0.535816 4.25609 1.4334
thorax -4.48851 2.00627 -2.10375
lowerneck -17.0151 -3.56064 -1.57531
upperneck 17.1528 -4.69377 1.04402
head 8.18714 -2.21862 0.0459341
rclavicle 1.67041e-014 -1.29707e-014
rhumerus -20.986 -11.043 -82.4894
rradius 32.1776
rwrist 0.337329
rhand -18.7026 23.8966
rfingers 7.12502
rthumb 7.59217 -5.94718
lclavicle 1.67041e-014 -1.29707e-014
lhumerus -41.3836 5.19613 83.0133
lradius 22.1753
lwrist 3.40417
lhand -25.793 21.3326
lfingers 7.12502
lthumb 0.745666 51.311
rfemur 13.6257 6.31906 31.6407
rtibia 32.5372
rfoot -16.5381 -2.21099
rtoes -10.4962
lfemur -25.8385 -3.61308 -12.7689
ltibia 22.0982
lfoot -1.07029 -4.2476
ltoes -4.69536
289
root 3.97342 17.5295 33.4962 -2.39006 -4.62343 -5.50874
lowerback 9.59778 2.65408 5.24434
upperback 0.450897 4.16897 1.40628
thorax -4.64046 1.96103 -2.02466
lowerneck -16.7308 -3.59848 -1.71759
upperneck 17.233 -4.73931 1.159
head 8.17129 -2.2393 0.106076
rclavicle -1.64308e-015 -2.83268e-015
rhumerus -21.3622 -11.5278 -82.3476
rradius 32.0101
rwrist 0.354342
rhand -19.0397 24.0982
rfingers 7.12502
rthumb 7.26681 -5.75706
lclavicle -1.64308e-015 -2.83268e-015
lhumerus -41.4203 5.27371 82.9825
lradius 21.6471
lwrist 3.30996
lhand -26.8604 23.3879
lfingers 7.12502
lthumb -0.285214 53.3675
rfemur 13.2323 6.14846 31.3271
rtibia 34.2708
rfoot -14.79 -1.70817
rtoes -10.7991
lfemur -25.8363 -3.88048 -13.0829
ltibia 23.0744
lfoot -0.282064 -5.00359
ltoes -4.20334
